<svg xmlns="http://www.w3.org/2000/svg" viewBox="0 0 512 512" width="512" height="512">
  <!-- Shield background -->
  <defs>
    <linearGradient id="shieldGradient" x1="0%" y1="0%" x2="0%" y2="100%">
      <stop offset="0%" style="stop-color:#0d6efd;stop-opacity:1" />
      <stop offset="100%" style="stop-color:#0a58ca;stop-opacity:1" />
    </linearGradient>
  </defs>

  <!-- Shield shape -->
  <path d="M256 32 L456 112 L456 288 C456 400, 256 480, 256 480 C256 480, 56 400, 56 288 L56 112 Z"
        fill="url(#shieldGradient)" stroke="#084298" stroke-width="8"/>

  <!-- Checkmark/Lock combination -->
  <!-- Lock body -->
  <rect x="196" y="240" width="120" height="140" rx="10" fill="#ffffff" opacity="0.95"/>

  <!-- Lock shackle -->
  <path d="M216 240 L216 200 C216 177.91, 233.91 160, 256 160 C278.09 160, 296 177.91, 296 200 L296 240"
        fill="none" stroke="#ffffff" stroke-width="20" stroke-linecap="round" opacity="0.95"/>

  <!-- Keyhole -->
  <circle cx="256" cy="300" r="18" fill="#0d6efd"/>
  <rect x="247" y="300" width="18" height="40" fill="#0d6efd"/>

  <!-- Security checkmark overlay -->
  <path d="M230 290 L245 305 L285 265"
        fill="none" stroke="#28a745" stroke-width="12" stroke-linecap="round" stroke-linejoin="round" opacity="0.8"/>
</svg>
